<?xml version="1.0" encoding="us-ascii" standalone="no"?><svg xmlns="http://www.w3.org/2000/svg" xmlns:xlink="http://www.w3.org/1999/xlink" contentStyleType="text/css" height="620px" preserveAspectRatio="none" style="width:1570px;height:620px;background:#282828;" version="1.1" viewBox="0 0 1570 620" width="1570px" zoomAndPan="magnify"><defs/><g><rect fill="#282828" height="620" style="stroke:none;stroke-width:1.0;" width="1570" x="0" y="0"/><!--cluster Schemas & Templates--><g id="cluster_Schemas &amp; Templates"><rect fill="#282828" height="300" rx="2.5" ry="2.5" style="stroke:#FFB000;stroke-width:1.0;" width="294" x="1270" y="176"/><text fill="#FFB000" font-family="Verdana" font-size="14" font-weight="bold" lengthAdjust="spacing" textLength="176" x="1329" y="190.9951">Schemas &amp; Templates</text></g><!--cluster Build & CI--><g id="cluster_Build &amp; CI"><rect fill="#282828" height="103" rx="2.5" ry="2.5" style="stroke:#FFB000;stroke-width:1.0;" width="742" x="385" y="237"/><text fill="#FFB000" font-family="Verdana" font-size="14" font-weight="bold" lengthAdjust="spacing" textLength="76" x="718" y="251.9951">Build &amp; CI</text></g><!--cluster Platform--><g id="cluster_Platform"><rect fill="#282828" height="193" rx="2.5" ry="2.5" style="stroke:#FFB000;stroke-width:1.0;" width="1129.5" x="12" y="12"/><text fill="#FFB000" font-family="Verdana" font-size="14" font-weight="bold" lengthAdjust="spacing" textLength="66" x="543.75" y="26.9951">Platform</text></g><!--cluster External--><g id="cluster_External"><rect fill="#282828" height="158" rx="2.5" ry="2.5" style="stroke:#FFB000;stroke-width:1.0;" width="468" x="689" y="412"/><text fill="#FFB000" font-family="Verdana" font-size="14" font-weight="bold" lengthAdjust="spacing" textLength="64" x="891" y="426.9951">External</text></g><!--entity CS--><g id="elem_CS"><a href="https://github.com/ctfpilot/challenge-schema" target="_top" title="https://github.com/ctfpilot/challenge-schema" xlink:actuate="onRequest" xlink:href="https://github.com/ctfpilot/challenge-schema" xlink:show="new" xlink:title="https://github.com/ctfpilot/challenge-schema" xlink:type="simple"><rect fill="#282828" height="36.2969" rx="2.5" ry="2.5" style="stroke:#FFB000;stroke-width:1.0;" width="147" x="1343.5" y="211"/><text fill="#FFB000" font-family="Verdana" font-size="14" lengthAdjust="spacing" textLength="127" x="1353.5" y="233.9951">challenge-schema</text></a></g><!--entity PS--><g id="elem_PS"><a href="https://github.com/ctfpilot/page-schema" target="_top" title="https://github.com/ctfpilot/page-schema" xlink:actuate="onRequest" xlink:href="https://github.com/ctfpilot/page-schema" xlink:show="new" xlink:title="https://github.com/ctfpilot/page-schema" xlink:type="simple"><rect fill="#282828" height="36.2969" rx="2.5" ry="2.5" style="stroke:#FFB000;stroke-width:1.0;" width="115" x="1359.5" y="282"/><text fill="#FFB000" font-family="Verdana" font-size="14" lengthAdjust="spacing" textLength="95" x="1369.5" y="304.9951">page-schema</text></a></g><!--entity CT--><g id="elem_CT"><a href="https://github.com/ctfpilot/challenges-template" target="_top" title="https://github.com/ctfpilot/challenges-template" xlink:actuate="onRequest" xlink:href="https://github.com/ctfpilot/challenges-template" xlink:show="new" xlink:title="https://github.com/ctfpilot/challenges-template" xlink:type="simple"><rect fill="#282828" height="36.2969" rx="2.5" ry="2.5" style="stroke:#FFB000;stroke-width:1.0;" width="161" x="1336.5" y="353"/><text fill="#FFB000" font-family="Verdana" font-size="14" lengthAdjust="spacing" textLength="141" x="1346.5" y="375.9951">challenges-template</text></a></g><!--entity PBT--><g id="elem_PBT"><a href="https://github.com/orgs/ctfpilot/projects/1" target="_top" title="https://github.com/orgs/ctfpilot/projects/1" xlink:actuate="onRequest" xlink:href="https://github.com/orgs/ctfpilot/projects/1" xlink:show="new" xlink:title="https://github.com/orgs/ctfpilot/projects/1" xlink:type="simple"><rect fill="#282828" height="36.2969" rx="2.5" ry="2.5" style="stroke:#FFB000;stroke-width:1.0;" width="262" x="1286" y="424"/><text fill="#FFB000" font-family="Verdana" font-size="14" lengthAdjust="spacing" textLength="242" x="1296" y="446.9951">Challenges Project board Template</text></a></g><!--entity Toolkit--><g id="elem_Toolkit"><a href="https://github.com/ctfpilot/challenge-toolkit" target="_top" title="https://github.com/ctfpilot/challenge-toolkit" xlink:actuate="onRequest" xlink:href="https://github.com/ctfpilot/challenge-toolkit" xlink:show="new" xlink:title="https://github.com/ctfpilot/challenge-toolkit" xlink:type="simple"><rect fill="#282828" height="36.2969" rx="2.5" ry="2.5" style="stroke:#FFB000;stroke-width:1.0;" width="134" x="977" y="272"/><text fill="#FFB000" font-family="Verdana" font-size="14" lengthAdjust="spacing" textLength="114" x="987" y="294.9951">challenge-toolkit</text></a></g><!--entity CI--><g id="elem_CI"><a href="https://github.com/ctfpilot/challenge-ci" target="_top" title="https://github.com/ctfpilot/challenge-ci" xlink:actuate="onRequest" xlink:href="https://github.com/ctfpilot/challenge-ci" xlink:show="new" xlink:title="https://github.com/ctfpilot/challenge-ci" xlink:type="simple"><rect fill="#282828" height="36.2969" rx="2.5" ry="2.5" style="stroke:#FFB000;stroke-width:1.0;" width="103" x="703" y="272"/><text fill="#FFB000" font-family="Verdana" font-size="14" lengthAdjust="spacing" textLength="83" x="713" y="294.9951">challenge-ci</text></a></g><!--entity Repo--><g id="elem_Repo"><a href="https://github.com/ctfpilot/challenges-example" target="_top" title="https://github.com/ctfpilot/challenges-example" xlink:actuate="onRequest" xlink:href="https://github.com/ctfpilot/challenges-example" xlink:show="new" xlink:title="https://github.com/ctfpilot/challenges-example" xlink:type="simple"><rect fill="#282828" height="36.2969" rx="2.5" ry="2.5" style="stroke:#FFB000;stroke-width:1.0;" width="175" x="401" y="280"/><text fill="#FFB000" font-family="Verdana" font-size="14" lengthAdjust="spacing" textLength="155" x="411" y="302.9951">Challenges Repository</text></a></g><!--entity Plugin--><g id="elem_Plugin"><a href="https://github.com/ctfpilot/ctfd-kubectf-plugin" target="_top" title="https://github.com/ctfpilot/ctfd-kubectf-plugin" xlink:actuate="onRequest" xlink:href="https://github.com/ctfpilot/ctfd-kubectf-plugin" xlink:show="new" xlink:title="https://github.com/ctfpilot/ctfd-kubectf-plugin" xlink:type="simple"><rect fill="#282828" height="36.2969" rx="2.5" ry="2.5" style="stroke:#FFB000;stroke-width:1.0;" width="150" x="36" y="55"/><text fill="#FFB000" font-family="Verdana" font-size="14" lengthAdjust="spacing" textLength="130" x="46" y="77.9951">ctfd-kubectf-plugin</text></a></g><!--entity Manager--><g id="elem_Manager"><a href="https://github.com/ctfpilot/ctfd-manager" target="_top" title="https://github.com/ctfpilot/ctfd-manager" xlink:actuate="onRequest" xlink:href="https://github.com/ctfpilot/ctfd-manager" xlink:show="new" xlink:title="https://github.com/ctfpilot/ctfd-manager" xlink:type="simple"><rect fill="#282828" height="36.2969" rx="2.5" ry="2.5" style="stroke:#FFB000;stroke-width:1.0;" width="112" x="55" y="126"/><text fill="#FFB000" font-family="Verdana" font-size="14" lengthAdjust="spacing" textLength="92" x="65" y="148.9951">ctfd-manager</text></a></g><!--entity CTFd--><g id="elem_CTFd"><a href="https://github.com/ctfpilot/ctfd" target="_top" title="https://github.com/ctfpilot/ctfd" xlink:actuate="onRequest" xlink:href="https://github.com/ctfpilot/ctfd" xlink:show="new" xlink:title="https://github.com/ctfpilot/ctfd" xlink:type="simple"><rect fill="#282828" height="36.2969" rx="2.5" ry="2.5" style="stroke:#FFB000;stroke-width:1.0;" width="46" x="465.5" y="83"/><text fill="#FFB000" font-family="Verdana" font-size="14" lengthAdjust="spacing" textLength="26" x="475.5" y="105.9951">ctfd</text></a></g><!--entity Kube--><g id="elem_Kube"><a href="https://github.com/ctfpilot/kube-ctf" target="_top" title="https://github.com/ctfpilot/kube-ctf" xlink:actuate="onRequest" xlink:href="https://github.com/ctfpilot/kube-ctf" xlink:show="new" xlink:title="https://github.com/ctfpilot/kube-ctf" xlink:type="simple"><rect fill="#282828" height="36.2969" rx="2.5" ry="2.5" style="stroke:#FFB000;stroke-width:1.0;" width="77" x="716" y="83"/><text fill="#FFB000" font-family="Verdana" font-size="14" lengthAdjust="spacing" textLength="57" x="726" y="105.9951">kube-ctf</text></a></g><!--entity IFB--><g id="elem_IFB"><a href="https://github.com/ctfpilot/instancing-fallback" target="_top" title="https://github.com/ctfpilot/instancing-fallback" xlink:actuate="onRequest" xlink:href="https://github.com/ctfpilot/instancing-fallback" xlink:show="new" xlink:title="https://github.com/ctfpilot/instancing-fallback" xlink:type="simple"><rect fill="#282828" height="36.2969" rx="2.5" ry="2.5" style="stroke:#FFB000;stroke-width:1.0;" width="147" x="970.5" y="55"/><text fill="#FFB000" font-family="Verdana" font-size="14" lengthAdjust="spacing" textLength="127" x="980.5" y="77.9951">instancing-fallback</text></a></g><!--entity EFB--><g id="elem_EFB"><a href="https://github.com/ctfpilot/error-fallback" target="_top" title="https://github.com/ctfpilot/error-fallback" xlink:actuate="onRequest" xlink:href="https://github.com/ctfpilot/error-fallback" xlink:show="new" xlink:title="https://github.com/ctfpilot/error-fallback" xlink:type="simple"><rect fill="#282828" height="36.2969" rx="2.5" ry="2.5" style="stroke:#FFB000;stroke-width:1.0;" width="109" x="989.5" y="126"/><text fill="#FFB000" font-family="Verdana" font-size="14" lengthAdjust="spacing" textLength="89" x="999.5" y="148.9951">error-fallback</text></a></g><!--entity CTFp--><g id="elem_CTFp"><a href="https://github.com/ctfpilot/ctfp" target="_top" title="https://github.com/ctfpilot/ctfp" xlink:actuate="onRequest" xlink:href="https://github.com/ctfpilot/ctfp" xlink:show="new" xlink:title="https://github.com/ctfpilot/ctfp" xlink:type="simple"><rect fill="#282828" height="36.2969" rx="2.5" ry="2.5" style="stroke:#FFB000;stroke-width:1.0;" width="56" x="726.5" y="518"/><text fill="#FFB000" font-family="Verdana" font-size="14" lengthAdjust="spacing" textLength="36" x="736.5" y="540.9951">CTFp</text></a></g><!--entity Bot--><g id="elem_Bot"><a href="https://github.com/ctfpilot/discord-bot" target="_top" title="https://github.com/ctfpilot/discord-bot" xlink:actuate="onRequest" xlink:href="https://github.com/ctfpilot/discord-bot" xlink:show="new" xlink:title="https://github.com/ctfpilot/discord-bot" xlink:type="simple"><rect fill="#282828" height="36.2969" rx="2.5" ry="2.5" style="stroke:#FFB000;stroke-width:1.0;" width="99" x="705" y="447"/><text fill="#FFB000" font-family="Verdana" font-size="14" lengthAdjust="spacing" textLength="79" x="715" y="469.9951">discord-bot</text></a></g><!--entity Board--><g id="elem_Board"><a href="https://github.com/orgs/ctfpilot/projects/2" target="_top" title="https://github.com/orgs/ctfpilot/projects/2" xlink:actuate="onRequest" xlink:href="https://github.com/orgs/ctfpilot/projects/2" xlink:show="new" xlink:title="https://github.com/orgs/ctfpilot/projects/2" xlink:type="simple"><rect fill="#282828" height="36.2969" rx="2.5" ry="2.5" style="stroke:#FFB000;stroke-width:1.0;" width="194" x="947" y="447"/><text fill="#FFB000" font-family="Verdana" font-size="14" lengthAdjust="spacing" textLength="174" x="957" y="469.9951">Challenges Project Board</text></a></g><!--link Toolkit to CS--><g id="link_Toolkit_CS"><path d="M1111.33,279.09 C1176.56,268.37 1269.9795,253.0137 1337.3495,241.9337 " fill="none" id="Toolkit-to-CS" style="stroke:#FFB000;stroke-width:1.0;"/><polygon fill="#FFB000" points="1343.27,240.96,1333.7402,238.4736,1338.3363,241.7714,1335.0384,246.3675,1343.27,240.96" style="stroke:#FFB000;stroke-width:1.0;"/><text fill="#FFB000" font-family="Verdana" font-size="13" lengthAdjust="spacing" textLength="30" x="1198.5" y="252.0669">uses</text></g><!--link Toolkit to PS--><g id="link_Toolkit_PS"><path d="M1111.33,291.79 C1181.98,293.69 1286.6422,296.5082 1353.3522,298.3082 " fill="none" id="Toolkit-to-PS" style="stroke:#FFB000;stroke-width:1.0;"/><polygon fill="#FFB000" points="1359.35,298.47,1350.4612,294.2287,1354.3518,298.3351,1350.2454,302.2258,1359.35,298.47" style="stroke:#FFB000;stroke-width:1.0;"/><text fill="#FFB000" font-family="Verdana" font-size="13" lengthAdjust="spacing" textLength="30" x="1198.5" y="290.0669">uses</text></g><!--link PBT to Board--><g id="link_PBT_Board"><path d="M1285.79,450.07 C1238.15,453.03 1191.1285,455.9381 1147.0085,458.6781 " fill="none" id="PBT-to-Board" style="stroke:#FFB000;stroke-width:1.0;"/><polygon fill="#FFB000" points="1141.02,459.05,1150.2506,462.4845,1146.0104,458.7401,1149.7548,454.4998,1141.02,459.05" style="stroke:#FFB000;stroke-width:1.0;"/><text fill="#FFB000" font-family="Verdana" font-size="13" lengthAdjust="spacing" textLength="79" x="1174" y="449.0669">template for</text></g><!--link CT to Repo--><g id="link_CT_Repo"><path d="M1336.44,368.04 C1201.41,362.58 918.86,349.17 681,325 C646.59,321.5 614.807,317.3173 582.017,312.5273 " fill="none" id="CT-to-Repo" style="stroke:#FFB000;stroke-width:1.0;"/><polygon fill="#FFB000" points="576.08,311.66,584.4073,316.9189,581.0275,312.3827,585.5637,309.0029,576.08,311.66" style="stroke:#FFB000;stroke-width:1.0;"/><text fill="#FFB000" font-family="Verdana" font-size="13" lengthAdjust="spacing" textLength="79" x="837" y="336.0669">template for</text></g><!--link CI to Toolkit--><g id="link_CI_Toolkit"><path d="M806.24,290 C853.71,290 918.9,290 970.82,290 " fill="none" id="CI-to-Toolkit" style="stroke:#FFB000;stroke-width:1.0;"/><polygon fill="#FFB000" points="976.82,290,967.82,286,971.82,290,967.82,294,976.82,290" style="stroke:#FFB000;stroke-width:1.0;"/><text fill="#FFB000" font-family="Verdana" font-size="13" lengthAdjust="spacing" textLength="28" x="862.5" y="286.0669">runs</text></g><!--link Repo to CI--><g id="link_Repo_CI"><path d="M576.31,295.37 C618.24,294.1 661.0928,292.8027 696.8628,291.7127 " fill="none" id="Repo-to-CI" style="stroke:#FFB000;stroke-width:1.0;"/><polygon fill="#FFB000" points="702.86,291.53,693.7423,287.806,697.8623,291.6823,693.986,295.8023,702.86,291.53" style="stroke:#FFB000;stroke-width:1.0;"/><text fill="#FFB000" font-family="Verdana" font-size="13" lengthAdjust="spacing" textLength="30" x="624.5" y="289.0669">uses</text></g><!--link Bot to Repo--><g id="link_Bot_Repo"><path d="M704.95,449.72 C675.14,439.2 636.89,423.59 606,404 C566.05,378.66 530.9602,343.5683 509.7702,320.6183 " fill="none" id="Bot-to-Repo" style="stroke:#FFB000;stroke-width:1.0;"/><polygon fill="#FFB000" points="505.7,316.21,508.8665,325.536,509.0919,319.8836,514.7442,320.109,505.7,316.21" style="stroke:#FFB000;stroke-width:1.0;"/><text fill="#FFB000" font-family="Verdana" font-size="13" lengthAdjust="spacing" textLength="65" x="607" y="400.0669">triggers CI</text></g><!--reverse link Platform to CTFp--><g id="link_Platform_CTFp"><path d="M112.0894,211.3166 C112.0998,212.0264 112.04,207.3011 112.0555,208.0887 C112.1792,214.3891 112.4812,223.1391 113.1806,233.725 C114.5794,254.8969 117.5675,283.4125 123.8975,314.3625 C136.5575,376.2625 162.585,447.9 216,490 C372.68,613.48 640.73,563.33 726.36,542.99 " fill="none" id="Platform-backto-CTFp" style="stroke:#FFB000;stroke-width:1.0;"/><polygon fill="#FFB000" points="112.0097,205.3171,108.1297,214.3695,112.0762,210.3167,116.129,214.2632,112.0097,205.3171" style="stroke:#FFB000;stroke-width:1.0;"/><text fill="#FFB000" font-family="Verdana" font-size="13" lengthAdjust="spacing" textLength="83" x="447" y="556.0669">Orchestrates</text></g><!--reverse link Manager to CTFp--><!--link Manager to CTFd--><g id="link_Manager_CTFd"><path d="M167.2,138.68 C219.28,133.54 299.51,125.34 369,117 C402.6,112.97 435.5096,108.4236 459.3096,105.0436 " fill="none" id="Manager-to-CTFd" style="stroke:#FFB000;stroke-width:1.0;"/><polygon fill="#FFB000" points="465.25,104.2,455.777,101.5052,460.2997,104.903,456.9018,109.4257,465.25,104.2" style="stroke:#FFB000;stroke-width:1.0;"/><text fill="#FFB000" font-family="Verdana" font-size="13" lengthAdjust="spacing" textLength="66" x="259.5" y="113.0669">configures</text></g><!--link Manager to Repo--><g id="link_Manager_Repo"><path d="M167.21,159.59 C173.58,161.63 179.96,163.79 186,166 C283.12,201.54 388.2176,250.2204 444.6276,277.2104 " fill="none" id="Manager-to-Repo" style="stroke:#FFB000;stroke-width:1.0;stroke-dasharray:7.0,7.0;"/><polygon fill="#FFB000" points="450.04,279.8,443.6478,272.3073,445.5297,277.642,440.195,279.5238,450.04,279.8" style="stroke:#FFB000;stroke-width:1.0;"/><text fill="#FFB000" font-family="Verdana" font-size="13" lengthAdjust="spacing" textLength="151" x="217" y="175.0669">reads challenges/pages</text></g><!--link Plugin to CTFd--><g id="link_Plugin_CTFd"><path d="M186.19,78.53 C272.96,85 405.5966,94.8941 459.2766,98.8941 " fill="none" id="Plugin-to-CTFd" style="stroke:#FFB000;stroke-width:1.0;"/><polygon fill="#FFB000" points="465.26,99.34,456.5821,94.6823,460.2738,98.9685,455.9876,102.6602,465.26,99.34" style="stroke:#FFB000;stroke-width:1.0;"/><text fill="#FFB000" font-family="Verdana" font-size="13" lengthAdjust="spacing" textLength="38" x="273.5" y="78.0669">plugin</text></g><!--link CTFd to Kube--><g id="link_CTFd_Kube"><path d="M511.55,101 C556.66,101 653.92,101 709.85,101 " fill="none" id="CTFd-to-Kube" style="stroke:#FFB000;stroke-width:1.0;"/><polygon fill="#FFB000" points="715.85,101,706.85,97,710.85,101,706.85,105,715.85,101" style="stroke:#FFB000;stroke-width:1.0;"/><text fill="#FFB000" font-family="Verdana" font-size="13" lengthAdjust="spacing" textLength="30" x="624.5" y="97.0669">uses</text></g><!--link Kube to IFB--><g id="link_Kube_IFB"><path d="M793.09,97.34 C837.91,92.97 907.8783,86.1619 964.3183,80.6619 " fill="none" id="Kube-to-IFB" style="stroke:#FFB000;stroke-width:1.0;"/><polygon fill="#FFB000" points="970.29,80.08,960.9445,76.9718,965.3136,80.5649,961.7204,84.934,970.29,80.08" style="stroke:#FFB000;stroke-width:1.0;"/><text fill="#FFB000" font-family="Verdana" font-size="13" lengthAdjust="spacing" textLength="48" x="852.5" y="82.0669">fallback</text></g><!--link Kube to EFB--><g id="link_Kube_EFB"><path d="M793.05,109.61 C806.55,112.52 821.91,115.63 836,118 C887.79,126.71 941.3557,133.2365 983.2457,137.8265 " fill="none" id="Kube-to-EFB" style="stroke:#FFB000;stroke-width:1.0;"/><polygon fill="#FFB000" points="989.21,138.48,980.6992,133.5235,984.2397,137.9354,979.8279,141.4759,989.21,138.48" style="stroke:#FFB000;stroke-width:1.0;"/><text fill="#FFB000" font-family="Verdana" font-size="13" lengthAdjust="spacing" textLength="48" x="852.5" y="114.0669">fallback</text></g><!--link Bot to Board--><g id="link_Bot_Board"><path d="M804.27,465 C843.2,465 892.95,465 940.79,465 " fill="none" id="Bot-to-Board" style="stroke:#FFB000;stroke-width:1.0;"/><polygon fill="#FFB000" points="946.79,465,937.79,461,941.79,465,937.79,469,946.79,465" style="stroke:#FFB000;stroke-width:1.0;"/><text fill="#FFB000" font-family="Verdana" font-size="13" lengthAdjust="spacing" textLength="77" x="838" y="461.0669">reads/writes</text></g><!--SRC=[bLPDRzmW4BtxLqptq9w8rHujjOVT9DAgghfgSejoO6riqyM002k9glxt3lXZRMyIqprXPjvZc0UF_U1grZ38ZIEqEJAJ25OwS0eChse71JSiTrp9n9wurDJG1ZJDJxHYT-v5CF1XAYl19WcsfeLwuhA2aWexZUIgqKeowPRWv1DyVUk7iPsIpj3SMVW8zwpHWZfctyNqHSBcBiSDqXbm0tyIEDS2cxocGZ1PCM93zWOGiBk3XuVQEMspDAsugzlZ5MBIt9MQ2-NI9UhnSSwgwPpmi4Ou0IovnhKiSVqskYBlOuiy0vVSkp453aRzHatWgAWfnePrrM_VM4gPoaxsq37Oz3CkytTDrstBHO7IxFPnOfxptz7GAILEt8Mgxxjnj98zzitsavntVTz7K-RydOR_ObfPxfHv2RJ-CrvGzanH81RJw0FgM2hJnBLvoBviiYiBScgFg719j6WhBhl34OPhbL-2B_hiKnegiGeJY7zqunZc7lOQPNzLRei8dYNU5qmm43Y-uySAnv2_vE7IejVbw8e4NL4SiTU1Sd-xNM5y1RaaPyOeC-UzMUMTWs9EqSspOqPI0IdyDEXJ5aqvF0vHfsf0NvmgL4OF4kbrYVHozmMtkJ85EQhkqc_LseMV82BSSElTi6VsllW_DlWbfg_NJ3DPCDHuvLMRFeN9u6s4VFEFLGQjPVFPmpZhtTlFT1l8O7WB0AzvilCn30RtMSH6aqRVuJ91t_EPmo8Pc5RQ90136VjXGQ_1b1F_Jk3bzCQPJEm8rEmO1Vr9woiV4hB9IKFQBeCyrBp0VZtwrDuYPhHSTaVD9eE1XEgy0sGejYnvrHfsZbvTZPKQHWiBPvSDhx9DajxY9ZoTXINXoqy7S-Yt7yP-qb_l38PBTfw_cSzFBjVOka6hK57wPBXlm3y0]--></g></svg>