<?xml version="1.0" encoding="us-ascii" standalone="no"?><svg xmlns="http://www.w3.org/2000/svg" xmlns:xlink="http://www.w3.org/1999/xlink" contentStyleType="text/css" height="559px" preserveAspectRatio="none" style="width:1726px;height:559px;background:#282828;" version="1.1" viewBox="0 0 1726 559" width="1726px" zoomAndPan="magnify"><defs/><g><rect fill="#282828" height="559" style="stroke:none;stroke-width:1.0;" width="1726" x="0" y="0"/><!--cluster Schemas & Templates--><g id="cluster_Schemas &amp; Templates"><rect fill="#282828" height="300" rx="2.5" ry="2.5" style="stroke:#FFB000;stroke-width:1.0;" width="294" x="1426" y="176"/><text fill="#FFB000" font-family="Verdana" font-size="14" font-weight="bold" lengthAdjust="spacing" textLength="176" x="1485" y="190.9951">Schemas &amp; Templates</text></g><!--cluster Build & CI--><g id="cluster_Build &amp; CI"><rect fill="#282828" height="103" rx="2.5" ry="2.5" style="stroke:#FFB000;stroke-width:1.0;" width="817" x="545" y="237"/><text fill="#FFB000" font-family="Verdana" font-size="14" font-weight="bold" lengthAdjust="spacing" textLength="76" x="915.5" y="251.9951">Build &amp; CI</text></g><!--cluster Platform--><g id="cluster_Platform"><rect fill="#282828" height="193" rx="2.5" ry="2.5" style="stroke:#FFB000;stroke-width:1.0;" width="1057.5" x="12" y="12"/><text fill="#FFB000" font-family="Verdana" font-size="14" font-weight="bold" lengthAdjust="spacing" textLength="66" x="507.75" y="26.9951">Platform</text></g><!--cluster External--><g id="cluster_External"><rect fill="#282828" height="158" rx="2.5" ry="2.5" style="stroke:#FFB000;stroke-width:1.0;" width="502" x="583" y="395"/><text fill="#FFB000" font-family="Verdana" font-size="14" font-weight="bold" lengthAdjust="spacing" textLength="64" x="802" y="409.9951">External</text></g><!--entity CS--><g id="elem_CS"><a href="https://github.com/ctfpilot/challenge-schema" target="_top" title="https://github.com/ctfpilot/challenge-schema" xlink:actuate="onRequest" xlink:href="https://github.com/ctfpilot/challenge-schema" xlink:show="new" xlink:title="https://github.com/ctfpilot/challenge-schema" xlink:type="simple"><rect fill="#282828" height="36.2969" rx="2.5" ry="2.5" style="stroke:#FFB000;stroke-width:1.0;" width="147" x="1499.5" y="211"/><text fill="#FFB000" font-family="Verdana" font-size="14" lengthAdjust="spacing" textLength="127" x="1509.5" y="233.9951">challenge-schema</text></a></g><!--entity PS--><g id="elem_PS"><a href="https://github.com/ctfpilot/page-schema" target="_top" title="https://github.com/ctfpilot/page-schema" xlink:actuate="onRequest" xlink:href="https://github.com/ctfpilot/page-schema" xlink:show="new" xlink:title="https://github.com/ctfpilot/page-schema" xlink:type="simple"><rect fill="#282828" height="36.2969" rx="2.5" ry="2.5" style="stroke:#FFB000;stroke-width:1.0;" width="115" x="1515.5" y="282"/><text fill="#FFB000" font-family="Verdana" font-size="14" lengthAdjust="spacing" textLength="95" x="1525.5" y="304.9951">page-schema</text></a></g><!--entity CT--><g id="elem_CT"><a href="https://github.com/ctfpilot/challenges-template" target="_top" title="https://github.com/ctfpilot/challenges-template" xlink:actuate="onRequest" xlink:href="https://github.com/ctfpilot/challenges-template" xlink:show="new" xlink:title="https://github.com/ctfpilot/challenges-template" xlink:type="simple"><rect fill="#282828" height="36.2969" rx="2.5" ry="2.5" style="stroke:#FFB000;stroke-width:1.0;" width="161" x="1492.5" y="353"/><text fill="#FFB000" font-family="Verdana" font-size="14" lengthAdjust="spacing" textLength="141" x="1502.5" y="375.9951">challenges-template</text></a></g><!--entity PBT--><g id="elem_PBT"><a href="https://github.com/orgs/ctfpilot/projects/1" target="_top" title="https://github.com/orgs/ctfpilot/projects/1" xlink:actuate="onRequest" xlink:href="https://github.com/orgs/ctfpilot/projects/1" xlink:show="new" xlink:title="https://github.com/orgs/ctfpilot/projects/1" xlink:type="simple"><rect fill="#282828" height="36.2969" rx="2.5" ry="2.5" style="stroke:#FFB000;stroke-width:1.0;" width="262" x="1442" y="424"/><text fill="#FFB000" font-family="Verdana" font-size="14" lengthAdjust="spacing" textLength="242" x="1452" y="446.9951">Challenges Project board Template</text></a></g><!--entity Toolkit--><g id="elem_Toolkit"><a href="https://github.com/ctfpilot/challenge-toolkit" target="_top" title="https://github.com/ctfpilot/challenge-toolkit" xlink:actuate="onRequest" xlink:href="https://github.com/ctfpilot/challenge-toolkit" xlink:show="new" xlink:title="https://github.com/ctfpilot/challenge-toolkit" xlink:type="simple"><rect fill="#282828" height="36.2969" rx="2.5" ry="2.5" style="stroke:#FFB000;stroke-width:1.0;" width="134" x="1212" y="272"/><text fill="#FFB000" font-family="Verdana" font-size="14" lengthAdjust="spacing" textLength="114" x="1222" y="294.9951">challenge-toolkit</text></a></g><!--entity CI--><g id="elem_CI"><a href="https://github.com/ctfpilot/challenge-ci" target="_top" title="https://github.com/ctfpilot/challenge-ci" xlink:actuate="onRequest" xlink:href="https://github.com/ctfpilot/challenge-ci" xlink:show="new" xlink:title="https://github.com/ctfpilot/challenge-ci" xlink:type="simple"><rect fill="#282828" height="36.2969" rx="2.5" ry="2.5" style="stroke:#FFB000;stroke-width:1.0;" width="103" x="920.5" y="272"/><text fill="#FFB000" font-family="Verdana" font-size="14" lengthAdjust="spacing" textLength="83" x="930.5" y="294.9951">challenge-ci</text></a></g><!--entity Repo--><g id="elem_Repo"><a href="https://github.com/ctfpilot/challenges-example" target="_top" title="https://github.com/ctfpilot/challenges-example" xlink:actuate="onRequest" xlink:href="https://github.com/ctfpilot/challenges-example" xlink:show="new" xlink:title="https://github.com/ctfpilot/challenges-example" xlink:type="simple"><rect fill="#282828" height="36.2969" rx="2.5" ry="2.5" style="stroke:#FFB000;stroke-width:1.0;" width="175" x="561" y="272"/><text fill="#FFB000" font-family="Verdana" font-size="14" lengthAdjust="spacing" textLength="155" x="571" y="294.9951">Challenges Repository</text></a></g><!--entity Plugin--><g id="elem_Plugin"><a href="https://github.com/ctfpilot/ctfd-kubectf-plugin" target="_top" title="https://github.com/ctfpilot/ctfd-kubectf-plugin" xlink:actuate="onRequest" xlink:href="https://github.com/ctfpilot/ctfd-kubectf-plugin" xlink:show="new" xlink:title="https://github.com/ctfpilot/ctfd-kubectf-plugin" xlink:type="simple"><rect fill="#282828" height="36.2969" rx="2.5" ry="2.5" style="stroke:#FFB000;stroke-width:1.0;" width="150" x="36" y="55"/><text fill="#FFB000" font-family="Verdana" font-size="14" lengthAdjust="spacing" textLength="130" x="46" y="77.9951">ctfd-kubectf-plugin</text></a></g><!--entity Manager--><g id="elem_Manager"><a href="https://github.com/ctfpilot/ctfd-manager" target="_top" title="https://github.com/ctfpilot/ctfd-manager" xlink:actuate="onRequest" xlink:href="https://github.com/ctfpilot/ctfd-manager" xlink:show="new" xlink:title="https://github.com/ctfpilot/ctfd-manager" xlink:type="simple"><rect fill="#282828" height="36.2969" rx="2.5" ry="2.5" style="stroke:#FFB000;stroke-width:1.0;" width="112" x="55" y="126"/><text fill="#FFB000" font-family="Verdana" font-size="14" lengthAdjust="spacing" textLength="92" x="65" y="148.9951">ctfd-manager</text></a></g><!--entity CTFd--><g id="elem_CTFd"><a href="https://github.com/ctfpilot/ctfd" target="_top" title="https://github.com/ctfpilot/ctfd" xlink:actuate="onRequest" xlink:href="https://github.com/ctfpilot/ctfd" xlink:show="new" xlink:title="https://github.com/ctfpilot/ctfd" xlink:type="simple"><rect fill="#282828" height="36.2969" rx="2.5" ry="2.5" style="stroke:#FFB000;stroke-width:1.0;" width="46" x="367.5" y="111"/><text fill="#FFB000" font-family="Verdana" font-size="14" lengthAdjust="spacing" textLength="26" x="377.5" y="133.9951">ctfd</text></a></g><!--entity Kube--><g id="elem_Kube"><a href="https://github.com/ctfpilot/kube-ctf" target="_top" title="https://github.com/ctfpilot/kube-ctf" xlink:actuate="onRequest" xlink:href="https://github.com/ctfpilot/kube-ctf" xlink:show="new" xlink:title="https://github.com/ctfpilot/kube-ctf" xlink:type="simple"><rect fill="#282828" height="36.2969" rx="2.5" ry="2.5" style="stroke:#FFB000;stroke-width:1.0;" width="77" x="610" y="111"/><text fill="#FFB000" font-family="Verdana" font-size="14" lengthAdjust="spacing" textLength="57" x="620" y="133.9951">kube-ctf</text></a></g><!--entity IFB--><g id="elem_IFB"><a href="https://github.com/ctfpilot/instancing-fallback" target="_top" title="https://github.com/ctfpilot/instancing-fallback" xlink:actuate="onRequest" xlink:href="https://github.com/ctfpilot/instancing-fallback" xlink:show="new" xlink:title="https://github.com/ctfpilot/instancing-fallback" xlink:type="simple"><rect fill="#282828" height="36.2969" rx="2.5" ry="2.5" style="stroke:#FFB000;stroke-width:1.0;" width="147" x="898.5" y="126"/><text fill="#FFB000" font-family="Verdana" font-size="14" lengthAdjust="spacing" textLength="127" x="908.5" y="148.9951">instancing-fallback</text></a></g><!--entity EFB--><g id="elem_EFB"><a href="https://github.com/ctfpilot/error-fallback" target="_top" title="https://github.com/ctfpilot/error-fallback" xlink:actuate="onRequest" xlink:href="https://github.com/ctfpilot/error-fallback" xlink:show="new" xlink:title="https://github.com/ctfpilot/error-fallback" xlink:type="simple"><rect fill="#282828" height="36.2969" rx="2.5" ry="2.5" style="stroke:#FFB000;stroke-width:1.0;" width="109" x="917.5" y="55"/><text fill="#FFB000" font-family="Verdana" font-size="14" lengthAdjust="spacing" textLength="89" x="927.5" y="77.9951">error-fallback</text></a></g><!--entity Bot--><g id="elem_Bot"><a href="https://github.com/ctfpilot/discord-bot" target="_top" title="https://github.com/ctfpilot/discord-bot" xlink:actuate="onRequest" xlink:href="https://github.com/ctfpilot/discord-bot" xlink:show="new" xlink:title="https://github.com/ctfpilot/discord-bot" xlink:type="simple"><rect fill="#282828" height="36.2969" rx="2.5" ry="2.5" style="stroke:#FFB000;stroke-width:1.0;" width="99" x="599" y="430"/><text fill="#FFB000" font-family="Verdana" font-size="14" lengthAdjust="spacing" textLength="79" x="609" y="452.9951">discord-bot</text></a></g><!--entity CTFp--><g id="elem_CTFp"><a href="https://github.com/ctfpilot/ctfp" target="_top" title="https://github.com/ctfpilot/ctfp" xlink:actuate="onRequest" xlink:href="https://github.com/ctfpilot/ctfp" xlink:show="new" xlink:title="https://github.com/ctfpilot/ctfp" xlink:type="simple"><rect fill="#282828" height="36.2969" rx="2.5" ry="2.5" style="stroke:#FFB000;stroke-width:1.0;" width="56" x="620.5" y="501"/><text fill="#FFB000" font-family="Verdana" font-size="14" lengthAdjust="spacing" textLength="36" x="630.5" y="523.9951">CTFp</text></a></g><!--entity Board--><g id="elem_Board"><a href="https://github.com/orgs/ctfpilot/projects/2" target="_top" title="https://github.com/orgs/ctfpilot/projects/2" xlink:actuate="onRequest" xlink:href="https://github.com/orgs/ctfpilot/projects/2" xlink:show="new" xlink:title="https://github.com/orgs/ctfpilot/projects/2" xlink:type="simple"><rect fill="#282828" height="36.2969" rx="2.5" ry="2.5" style="stroke:#FFB000;stroke-width:1.0;" width="194" x="875" y="430"/><text fill="#FFB000" font-family="Verdana" font-size="14" lengthAdjust="spacing" textLength="174" x="885" y="452.9951">Challenges Project Board</text></a></g><!--link Toolkit to CS--><g id="link_Toolkit_CS"><path d="M1346.26,276.16 C1391.86,266.63 1446.5567,255.2067 1493.4767,245.4067 " fill="none" id="Toolkit-to-CS" style="stroke:#FFB000;stroke-width:1.0;"/><polygon fill="#FFB000" points="1499.35,244.18,1489.7223,242.1046,1494.4556,245.2023,1491.3579,249.9356,1499.35,244.18" style="stroke:#FFB000;stroke-width:1.0;"/><text fill="#FFB000" font-family="Verdana" font-size="13" lengthAdjust="spacing" textLength="30" x="1379" y="260.0669">uses</text></g><!--link Toolkit to PS--><g id="link_Toolkit_PS"><path d="M1346.26,292.27 C1397.24,294.02 1460.9435,296.1944 1509.3535,297.8544 " fill="none" id="Toolkit-to-PS" style="stroke:#FFB000;stroke-width:1.0;"/><polygon fill="#FFB000" points="1515.35,298.06,1506.4924,293.7539,1510.3529,297.8886,1506.2182,301.7492,1515.35,298.06" style="stroke:#FFB000;stroke-width:1.0;"/><text fill="#FFB000" font-family="Verdana" font-size="13" lengthAdjust="spacing" textLength="30" x="1379" y="290.0669">uses</text></g><!--link PBT to Board--><g id="link_PBT_Board"><path d="M1441.92,443.3 C1329.73,444.43 1176.2697,445.9594 1075.2397,446.9794 " fill="none" id="PBT-to-Board" style="stroke:#FFB000;stroke-width:1.0;"/><polygon fill="#FFB000" points="1069.24,447.04,1078.2799,450.9489,1074.2397,446.9895,1078.1992,442.9493,1069.24,447.04" style="stroke:#FFB000;stroke-width:1.0;"/><text fill="#FFB000" font-family="Verdana" font-size="13" lengthAdjust="spacing" textLength="79" x="1239.5" y="440.0669">template for</text></g><!--link CT to Repo--><g id="link_CT_Repo"><path d="M1492.36,368.03 C1362.69,362.68 1098,349.62 875,325 C829.03,319.92 783.9999,313.177 742.1899,306.277 " fill="none" id="CT-to-Repo" style="stroke:#FFB000;stroke-width:1.0;"/><polygon fill="#FFB000" points="736.27,305.3,744.4986,310.7121,741.2033,306.1141,745.8012,302.8189,736.27,305.3" style="stroke:#FFB000;stroke-width:1.0;"/><text fill="#FFB000" font-family="Verdana" font-size="13" lengthAdjust="spacing" textLength="79" x="1102" y="342.0669">template for</text></g><!--link CI to Toolkit--><g id="link_CI_Toolkit"><path d="M1023.71,290 C1075.29,290 1149.46,290 1205.97,290 " fill="none" id="CI-to-Toolkit" style="stroke:#FFB000;stroke-width:1.0;"/><polygon fill="#FFB000" points="1211.97,290,1202.97,286,1206.97,290,1202.97,294,1211.97,290" style="stroke:#FFB000;stroke-width:1.0;"/><text fill="#FFB000" font-family="Verdana" font-size="13" lengthAdjust="spacing" textLength="28" x="1127.5" y="286.0669">runs</text></g><!--link Repo to CI--><g id="link_Repo_CI"><path d="M736.08,290 C795.04,290 865.04,290 914.38,290 " fill="none" id="Repo-to-CI" style="stroke:#FFB000;stroke-width:1.0;"/><polygon fill="#FFB000" points="920.38,290,911.38,286,915.38,290,911.38,294,920.38,290" style="stroke:#FFB000;stroke-width:1.0;"/><text fill="#FFB000" font-family="Verdana" font-size="13" lengthAdjust="spacing" textLength="30" x="790.5" y="286.0669">uses</text></g><!--link Bot to Repo--><g id="link_Bot_Repo"><path d="M648.5,429.88 C648.5,399.56 648.5,344.9 648.5,314.4 " fill="none" id="Bot-to-Repo" style="stroke:#FFB000;stroke-width:1.0;"/><polygon fill="#FFB000" points="648.5,308.4,644.5,317.4,648.5,313.4,652.5,317.4,648.5,308.4" style="stroke:#FFB000;stroke-width:1.0;"/><text fill="#FFB000" font-family="Verdana" font-size="13" lengthAdjust="spacing" textLength="65" x="604.5" y="373.5669">triggers CI</text></g><!--reverse link Platform to CTFp--><g id="link_Platform_CTFp"><path d="M116.2136,211.1013 C116.2956,211.3666 114.7352,206.2969 114.8212,206.573 C115.1651,207.6773 115.5407,208.867 115.9483,210.1367 C116.7635,212.6763 117.7065,215.5361 118.7789,218.6731 C123.0684,231.2212 129.4281,248.205 137.9588,266.87 C155.02,304.2 180.765,348.255 216,377 C342.65,480.32 547.04,509.42 620.29,516.75 " fill="none" id="Platform-backto-CTFp" style="stroke:#FFB000;stroke-width:1.0;"/><polygon fill="#FFB000" points="114.4477,205.3671,113.2738,215.1457,115.9193,210.1456,120.9194,212.7912,114.4477,205.3671" style="stroke:#FFB000;stroke-width:1.0;"/><text fill="#FFB000" font-family="Verdana" font-size="13" lengthAdjust="spacing" textLength="83" x="349" y="433.0669">Orchestrates</text></g><!--reverse link Manager to CTFp--><!--link Manager to CTFd--><g id="link_Manager_CTFd"><path d="M167.16,141.02 C228.48,137.7 318.5587,132.8338 361.4887,130.5138 " fill="none" id="Manager-to-CTFd" style="stroke:#FFB000;stroke-width:1.0;"/><polygon fill="#FFB000" points="367.48,130.19,358.2773,126.6815,362.4873,130.4598,358.709,134.6698,367.48,130.19" style="stroke:#FFB000;stroke-width:1.0;"/><text fill="#FFB000" font-family="Verdana" font-size="13" lengthAdjust="spacing" textLength="66" x="217" y="131.0669">configures</text></g><!--link Manager to Repo--><g id="link_Manager_Repo"><path d="M167.29,159.07 C266.57,186.14 468.8013,241.2818 575.5013,270.3718 " fill="none" id="Manager-to-Repo" style="stroke:#FFB000;stroke-width:1.0;stroke-dasharray:7.0,7.0;"/><polygon fill="#FFB000" points="581.29,271.95,573.6591,265.7236,576.4661,270.6348,571.5548,273.4418,581.29,271.95" style="stroke:#FFB000;stroke-width:1.0;"/><text fill="#FFB000" font-family="Verdana" font-size="13" lengthAdjust="spacing" textLength="151" x="315" y="197.0669">reads challenges/pages</text></g><!--reverse link Repo to Kube--><g id="link_Repo_Kube"><path d="M648.5,265.84 C648.5,234.92 648.5,178.38 648.5,147.34 " fill="none" id="Repo-backto-Kube" style="stroke:#FFB000;stroke-width:1.0;stroke-dasharray:7.0,7.0;"/><polygon fill="#FFB000" points="648.5,271.84,652.5,262.84,648.5,266.84,644.5,262.84,648.5,271.84" style="stroke:#FFB000;stroke-width:1.0;"/><text fill="#FFB000" font-family="Verdana" font-size="13" lengthAdjust="spacing" textLength="174" x="550" y="214.0669">reads instancing templates</text></g><!--link Plugin to CTFd--><g id="link_Plugin_CTFd"><path d="M186,87.93 C246.69,100.18 322.8085,115.5434 361.5685,123.3634 " fill="none" id="Plugin-to-CTFd" style="stroke:#FFB000;stroke-width:1.0;"/><polygon fill="#FFB000" points="367.45,124.55,359.4188,118.8491,362.5488,123.5612,357.8367,126.6911,367.45,124.55" style="stroke:#FFB000;stroke-width:1.0;"/><text fill="#FFB000" font-family="Verdana" font-size="13" lengthAdjust="spacing" textLength="38" x="231" y="91.0669">plugin</text></g><!--link CTFd to Kube--><g id="link_CTFd_Kube"><path d="M413.77,129 C457.69,129 549.87,129 603.96,129 " fill="none" id="CTFd-to-Kube" style="stroke:#FFB000;stroke-width:1.0;"/><polygon fill="#FFB000" points="609.96,129,600.96,125,604.96,129,600.96,133,609.96,129" style="stroke:#FFB000;stroke-width:1.0;"/><text fill="#FFB000" font-family="Verdana" font-size="13" lengthAdjust="spacing" textLength="30" x="498" y="125.0669">uses</text></g><!--link Kube to IFB--><g id="link_Kube_IFB"><path d="M687.01,130.75 C738.61,133.16 826.5465,137.2606 892.1965,140.3206 " fill="none" id="Kube-to-IFB" style="stroke:#FFB000;stroke-width:1.0;"/><polygon fill="#FFB000" points="898.19,140.6,889.386,136.1853,893.1954,140.3672,889.0135,144.1766,898.19,140.6" style="stroke:#FFB000;stroke-width:1.0;"/><text fill="#FFB000" font-family="Verdana" font-size="13" lengthAdjust="spacing" textLength="48" x="781.5" y="131.0669">fallback</text></g><!--link Kube to EFB--><g id="link_Kube_EFB"><path d="M687.01,122.47 C743.91,112.56 846.379,94.7095 911.549,83.3595 " fill="none" id="Kube-to-EFB" style="stroke:#FFB000;stroke-width:1.0;"/><polygon fill="#FFB000" points="917.46,82.33,907.9072,79.9335,912.5341,83.1879,909.2798,87.8149,917.46,82.33" style="stroke:#FFB000;stroke-width:1.0;"/><text fill="#FFB000" font-family="Verdana" font-size="13" lengthAdjust="spacing" textLength="48" x="781.5" y="92.0669">fallback</text></g><!--link Bot to Board--><g id="link_Bot_Board"><path d="M698.33,448 C744.97,448 810.56,448 868.68,448 " fill="none" id="Bot-to-Board" style="stroke:#FFB000;stroke-width:1.0;"/><polygon fill="#FFB000" points="874.68,448,865.68,444,869.68,448,865.68,452,874.68,448" style="stroke:#FFB000;stroke-width:1.0;"/><text fill="#FFB000" font-family="Verdana" font-size="13" lengthAdjust="spacing" textLength="77" x="767" y="444.0669">reads/writes</text></g><!--SRC=[bLOzRzim4DtvAwuUsaaMsb50EzX90ACeQZJUWWoqH4ciAL8WAIH1qV_U8_Kj9n7hYIBlFHxlyHxzmPQiOf1g6z7gp3GHBBTW5MXUb1OohbbgkPB4NBYigQOLr3Izq8BTsnV1m2rJMGWs2J0bpTGJbmNaL9ZfIgggMaacxH9CFi7NjtwujbVIQffQ0n_XnAfQKClCkvWkITZSftX0EWDku0-1CHVOf2KLWic2HSP7Rm01-tjuU2YjhKqInmMtPNFU8YPERLvpeMoyH3q-pbbhEYSyhX5E04kkOIyJsUuORPAdq2H7u99xFuJ0KQlVg0cS5TNPKB0s-zqRMobTcCaPMWOJVyPj_gxfkckuo52Q_I5Cp37-7GsjKkB2hS_wr8w3bUomRvO_IdbRzqCmPShVAVWlLYl3hT8ldjPzXWlAdYaAn48AVKGTSwMhi3BtqTT5jdaMNPepAfn7jMWABjlBuOThcL-3h-hiGYegCGljYN-qun3c3lOQPTSgTra0pnBl4evmmNDynuyLZZv-oSEbGQzBqHKZT4LnnbfxoiFTReNn5UIId6cjz9ptTfLt3WgvHRVFbcb91SJmKwDF6JHb_pW4tQeUVNMhCcvIfRFehDgctQcrXfqWhfhhT5VtUjVhUjS1RhXpRjXbvdpnVspmIqXTRrZDPCPGuvLNRVeKajxRekYRUwmIQ0oRpnw7MUVURgOzG0BzMm3OvcJlrd3HkyzYRJ1fz1qk2VgUY-mtIK0tqX0Fz6aS-WsTXbDE_3k1pUcCaqpi2DJi6dd9eiPbtWSaavk6j6r4z53o3Elrw48xYvZHSjbUDKDw0_7PEGT8K6oPywBHR5pTReTCDQEPWT5b_QjiYE_yhLZ6ZRqvbCqGqjdXPC_MxeZ_SjEUhYkL7xj9PmK9z0qvpj_EvoUDE9IvrzLd5JzfxlBu1m00]--></g></svg>